<svg xmlns="http://www.w3.org/2000/svg" viewBox="0 0 128 128" role="img" aria-labelledby="title">
  <title id="title">博学多才</title>
  <defs>
    <linearGradient id="bg" x1="18" y1="110" x2="110" y2="18" gradientUnits="userSpaceOnUse">
      <stop stop-color="#1E3A8A"/>
      <stop offset="0.55" stop-color="#0284C7"/>
      <stop offset="1" stop-color="#BAE6FD"/>
    </linearGradient>
  </defs>
  <circle cx="64" cy="64" r="58" fill="#0D1117"/>
  <circle cx="64" cy="64" r="52" fill="url(#bg)"/>
  <path d="M34 28h24c8 0 14 6 14 14v58H45c-6 0-11-5-11-11V28Z" fill="#E0F2FE" stroke="#F8FAFC" stroke-width="5" stroke-linejoin="round"/>
  <path d="M72 42c0-8 6-14 14-14h8v61c0 6-5 11-11 11H72V42Z" fill="#BAE6FD" stroke="#F8FAFC" stroke-width="5" stroke-linejoin="round"/>
  <path d="M45 50h15M45 65h15M82 50h7M82 65h7" stroke="#075985" stroke-width="5" stroke-linecap="round"/>
  <rect x="43" y="83" width="42" height="25" rx="7" fill="#111827" stroke="#BAE6FD" stroke-width="3"/>
  <text x="64" y="102" text-anchor="middle" font-family="Inter, Arial, sans-serif" font-size="18" font-weight="900" fill="#E0F2FE">20</text>
</svg>
